<svg width="25" height="25" viewBox="0 0 25 25" fill="none" xmlns="http://www.w3.org/2000/svg">
<path d="M21.7559 6.76053L15.0892 0.238818C14.931 0.0839354 14.7166 0 14.5 0H2.83335C2.37315 0 2 0.364989 2 0.815233L2 24.1848C2 24.635 2.3731 25 2.83335 25H21.1667C21.6269 25 22 24.635 22 24.1848V7.33695C22 7.12836 21.9149 6.91605 21.7559 6.76053ZM15.0742 3.09475C15.4791 3.49084 18.6446 6.58759 19.0497 6.98383L15.3334 6.52172L15.0742 3.09475ZM19.9556 23H4.04444V2H13.2444V7.50003C13.2444 7.95023 13.8064 8.50003 14.2667 8.50003L20.1135 8.73153L19.9556 23Z" fill="white"/>
<path d="M17.7281 12.0001H9.57597C9.12578 12.0001 8.76074 12.3651 8.76074 12.8154C8.76074 13.2656 9.12573 13.6306 9.57597 13.6306H17.7281C18.1783 13.6306 18.5433 13.2656 18.5433 12.8154C18.5433 12.3651 18.1783 12.0001 17.7281 12.0001Z" fill="white"/>
<path d="M17.7281 15.261H9.57597C9.12578 15.261 8.76074 15.626 8.76074 16.0762C8.76074 16.5265 9.12573 16.8915 9.57597 16.8915H17.7281C18.1783 16.8915 18.5433 16.5265 18.5433 16.0762C18.5433 15.626 18.1783 15.261 17.7281 15.261Z" fill="white"/>
<path d="M17.7281 18.5217H9.57597C9.12578 18.5217 8.76074 18.8867 8.76074 19.337C8.76074 19.7872 9.12573 20.1522 9.57597 20.1522H17.7281C18.1783 20.1522 18.5433 19.7872 18.5433 19.337C18.5433 18.8867 18.1783 18.5217 17.7281 18.5217Z" fill="white"/>
<path d="M6.31523 13.6305C6.76547 13.6305 7.13046 13.2655 7.13046 12.8152C7.13046 12.365 6.76547 12 6.31523 12C5.86499 12 5.5 12.365 5.5 12.8152C5.5 13.2655 5.86499 13.6305 6.31523 13.6305Z" fill="white"/>
<path d="M6.31523 16.8915C6.76547 16.8915 7.13046 16.5265 7.13046 16.0762C7.13046 15.626 6.76547 15.261 6.31523 15.261C5.86499 15.261 5.5 15.626 5.5 16.0762C5.5 16.5265 5.86499 16.8915 6.31523 16.8915Z" fill="white"/>
<path d="M6.31523 20.1523C6.76547 20.1523 7.13046 19.7873 7.13046 19.3371C7.13046 18.8868 6.76547 18.5219 6.31523 18.5219C5.86499 18.5219 5.5 18.8868 5.5 19.3371C5.5 19.7873 5.86499 20.1523 6.31523 20.1523Z" fill="white"/>
</svg>
