<svg width="25" height="25" viewBox="0 0 25 25" fill="none" xmlns="http://www.w3.org/2000/svg">
<g clip-path="url(#clip0)">
<path d="M22.5716 3.43526C22.5677 3.43521 22.5639 3.43492 22.56 3.43497L22.5543 3.43482H2.44565L2.44043 3.43492C2.43691 3.43492 2.43335 3.43512 2.42983 3.43521C1.08862 3.44381 0 4.53722 0 5.88048V20.5544C0 21.9029 1.09712 23.0001 2.44565 23.0001H22.5543C23.9029 23.0001 25 21.9029 25 20.5544V5.88048C25 4.5377 23.9122 3.44464 22.5716 3.43526ZM20.5 5.38581L12.5 13.1592L4.5 5.38581H20.5ZM3 21.0001H2.44565C1.99614 21.0001 2 21.0039 2 20.5544V9.71754L3 11V21.0001ZM20 21.0001H5V12.5L10.7707 18.3475C11.2474 18.8243 11.8737 19.0626 12.5 19.0626C13.1263 19.0626 13.7525 18.8242 14.2293 18.3475L20.1087 12.4681L20 21.0001ZM23 20.5544C23 21.0039 22.9495 21.0001 22.5 21.0001H22V10.8018L23 9.38581V20.5544ZM23 6.88581L20.3476 9.9235L13.0765 17.1946C12.9225 17.3485 12.7178 17.4334 12.5 17.4334C12.2822 17.4334 12.0775 17.3486 11.9235 17.1946L4.65269 9.92374L2 7.21754V5.88581C2 5.53884 2.19385 5.50324 2.5 5.38581L11.9235 14.8885C12.0827 15.0477 12.2913 15.1273 12.5 15.1273C12.7085 15.1273 12.9172 15.0477 13.0764 14.8885L22.5 5.38581C22.8059 5.50344 23 5.53904 23 5.88581V6.88581Z" fill="white"/>
</g>
<defs>
<clipPath id="clip0">
<rect width="25" height="25" fill="white"/>
</clipPath>
</defs>
</svg>
