<svg width="25" height="25" viewBox="0 0 25 25" fill="none" xmlns="http://www.w3.org/2000/svg">
<path fill-rule="evenodd" clip-rule="evenodd" d="M12.5027 2.24501C14.1671 2.18088 15.8339 2.22553 17.4925 2.37867C18.2971 2.36855 19.0965 2.50956 19.8491 2.79438C20.8874 3.27819 21.7218 4.11264 22.2056 5.15094C22.4897 5.90547 22.6294 6.7067 22.6173 7.51286C22.6173 8.75998 22.751 9.17568 22.751 12.5027C22.8151 14.1671 22.7705 15.8339 22.6173 17.4925C22.6274 18.2971 22.4864 19.0965 22.2016 19.8491C21.7178 20.8874 20.8834 21.7218 19.845 22.2056C19.0925 22.4904 18.2931 22.6314 17.4885 22.6213C16.2414 22.6213 15.8257 22.755 12.4987 22.755C10.8355 22.8176 9.17002 22.7716 7.51285 22.6173C6.70824 22.6274 5.90887 22.4864 5.15629 22.2016C4.11888 21.7191 3.28455 20.8867 2.79973 19.8504C2.51491 19.0978 2.3739 18.2984 2.38402 17.4938C2.38402 16.2467 2.25035 15.831 2.25035 12.504C2.18622 10.8396 2.23087 9.17278 2.38402 7.51419C2.3739 6.70958 2.51491 5.91021 2.79973 5.15763C3.04162 4.64313 3.36984 4.17385 3.77015 3.77016C4.0952 3.28532 4.5895 2.93926 5.15629 2.79973C5.90887 2.51491 6.70824 2.3739 7.51285 2.38402C9.17144 2.23088 10.8383 2.18623 12.5027 2.25035V2.24501ZM12.5027 0.0274567C10.7937 -0.0349881 9.08255 0.00965523 7.37918 0.161125C6.33544 0.159926 5.30029 0.349742 4.32487 0.721193C3.48375 0.995568 2.72247 1.47143 2.10733 2.10733C1.47143 2.72247 0.995566 3.48376 0.721191 4.32488C0.283229 5.28051 0.0907217 6.33034 0.161122 7.37919C0.00965303 9.08255 -0.0349903 10.7937 0.0274545 12.5027C-0.0352139 14.2134 0.00942962 15.9264 0.161122 17.6315C0.158868 18.6731 0.346859 19.7064 0.715844 20.6805C0.990219 21.5216 1.46608 22.2829 2.10198 22.898C2.71712 23.5339 3.47841 24.0098 4.31953 24.2842C5.2936 24.6531 6.32687 24.8411 7.36849 24.8389C9.07363 24.9906 10.7866 25.0352 12.4973 24.9725C14.2081 25.0352 15.921 24.9906 17.6262 24.8389C18.6678 24.8411 19.701 24.6531 20.6751 24.2842C21.5115 23.9966 22.2713 23.5221 22.8967 22.8967C23.5221 22.2713 23.9966 21.5115 24.2842 20.6751C24.6531 19.701 24.8411 18.6678 24.8389 17.6262C24.8389 16.24 24.9725 15.8243 24.9725 12.4973C25.0352 10.7866 24.9906 9.07363 24.8389 7.36849C24.8411 6.32688 24.6531 5.2936 24.2842 4.31953C24.0098 3.47841 23.5339 2.71712 22.898 2.10198C22.2827 1.46821 21.5219 0.994225 20.6818 0.721193C19.7077 0.350223 18.6739 0.160415 17.6315 0.161125C15.9264 0.00942832 14.2134 -0.0352152 12.5027 0.0274567ZM12.5027 6.12672C11.6616 6.11299 10.8263 6.26853 10.0465 6.58409C9.26678 6.89965 8.55842 7.36878 7.9636 7.9636C7.36878 8.55842 6.89964 9.26678 6.58408 10.0465C6.26852 10.8263 6.11299 11.6616 6.12672 12.5027C6.12672 13.7637 6.50066 14.9964 7.20126 16.045C7.90186 17.0935 8.89765 17.9107 10.0627 18.3933C11.2278 18.8759 12.5097 19.0021 13.7466 18.7561C14.9834 18.5101 16.1195 17.9028 17.0112 17.0112C17.9028 16.1195 18.5101 14.9834 18.7561 13.7466C19.0021 12.5097 18.8759 11.2278 18.3933 10.0627C17.9107 8.89765 17.0935 7.90186 16.045 7.20126C14.9964 6.50066 13.7637 6.12672 12.5027 6.12672ZM12.5027 16.6611C11.9538 16.6711 11.4086 16.5703 10.8996 16.3649C10.3906 16.1594 9.92818 15.8535 9.54003 15.4653C9.15188 15.0772 8.84595 14.6148 8.6405 14.1057C8.43505 13.5967 8.3343 13.0515 8.34427 12.5027C8.3343 11.9538 8.43505 11.4086 8.6405 10.8996C8.84595 10.3906 9.15188 9.92818 9.54003 9.54003C9.92818 9.15188 10.3906 8.84595 10.8996 8.6405C11.4086 8.43505 11.9538 8.3343 12.5027 8.34427C13.0515 8.3343 13.5967 8.43505 14.1057 8.6405C14.6148 8.84595 15.0772 9.15188 15.4653 9.54003C15.8535 9.92818 16.1594 10.3906 16.3648 10.8996C16.5703 11.4086 16.671 11.9538 16.6611 12.5027C16.671 13.0515 16.5703 13.5967 16.3648 14.1057C16.1594 14.6148 15.8535 15.0772 15.4653 15.4653C15.0772 15.8535 14.6148 16.1594 14.1057 16.3649C13.5967 16.5703 13.0515 16.6711 12.5027 16.6611ZM19.1567 4.32354C18.855 4.32354 18.5601 4.41299 18.3093 4.58057C18.0585 4.74816 17.863 4.98636 17.7476 5.26504C17.6322 5.54373 17.602 5.85038 17.6608 6.14623C17.7197 6.44208 17.8649 6.71384 18.0782 6.92713C18.2915 7.14043 18.5633 7.28569 18.8591 7.34453C19.155 7.40338 19.4616 7.37318 19.7403 7.25775C20.019 7.14231 20.2572 6.94683 20.4248 6.69602C20.5924 6.44521 20.6818 6.15034 20.6818 5.84869C20.6783 5.44528 20.5165 5.05937 20.2312 4.7741C19.946 4.48884 19.5601 4.32703 19.1567 4.32354Z" fill="white"/>
</svg>
