<svg width="172" height="25" viewBox="0 0 172 25" fill="none" xmlns="http://www.w3.org/2000/svg">
<g clip-path="url(#clip0)">
<path d="M169.572 3.4352C169.568 3.43515 169.564 3.43486 169.56 3.43491L169.554 3.43476H149.446L149.44 3.43486C149.437 3.43486 149.433 3.43506 149.43 3.43515C148.089 3.44375 147 4.53716 147 5.88042V20.5543C147 21.9029 148.097 23 149.446 23H169.554C170.903 23 172 21.9029 172 20.5543V5.88042C172 4.53764 170.912 3.44458 169.572 3.4352ZM167.5 5.38575L159.5 13.1592L151.5 5.38575H167.5ZM150 21H149.446C148.996 21 149 21.0039 149 20.5543V9.71748L150 10.9999V21ZM167 21H152V12.4999L157.771 18.3474C158.247 18.8242 158.874 19.0625 159.5 19.0625C160.126 19.0625 160.753 18.8242 161.229 18.3474L167.109 12.4681L167 21ZM170 20.5543C170 21.0039 169.95 21 169.5 21H169V10.8017L170 9.38575V20.5543ZM170 6.88575L167.348 9.92343L160.076 17.1945C159.923 17.3485 159.718 17.4333 159.5 17.4333C159.282 17.4333 159.078 17.3485 158.924 17.1945L151.653 9.92368L149 7.21748V5.88575C149 5.53878 149.194 5.50318 149.5 5.38575L158.924 14.8884C159.083 15.0476 159.291 15.1272 159.5 15.1272C159.709 15.1272 159.917 15.0476 160.076 14.8885L169.5 5.38575C169.806 5.50338 170 5.53897 170 5.88575V6.88575Z" fill="#61606B"/>
</g>
<path d="M100.444 3H117.556C118.354 3 119 3.64617 119 4.44444V21.5556C119 22.3538 118.354 23 117.556 23H100.444C99.6462 23 99 22.3538 99 21.5556V4.44444C99 3.64617 99.6462 3 100.444 3Z" stroke="#61606B" stroke-width="2"/>
<path d="M116.22 17.5027L114.099 17.532C114.099 17.532 113.642 17.6212 113.043 17.2081C112.25 16.663 111.502 15.2452 110.919 15.4298C110.327 15.618 110.346 16.894 110.346 16.894C110.346 16.894 110.351 17.1189 110.215 17.2656C110.068 17.4232 109.781 17.4073 109.781 17.4073H108.831C108.831 17.4073 106.736 17.5809 104.89 15.6559C102.878 13.5573 101.101 9.41522 101.101 9.41522C101.101 9.41522 100.997 9.15367 101.108 9.02045C101.234 8.87256 101.574 8.86889 101.574 8.86889L103.843 8.85789C103.843 8.85789 104.057 8.89578 104.211 9.00822C104.337 9.10111 104.409 9.27589 104.409 9.27589C104.409 9.27589 104.776 10.206 105.262 11.0481C106.211 12.6896 106.652 13.0489 106.974 12.8729C107.443 12.6162 107.302 10.5531 107.302 10.5531C107.302 10.5531 107.311 9.80389 107.066 9.47022C106.876 9.20989 106.518 9.13289 106.36 9.11333C106.232 9.09622 106.441 8.79922 106.713 8.66478C107.121 8.46556 107.844 8.45333 108.696 8.46189C109.359 8.46922 109.551 8.50956 109.81 8.57311C110.594 8.76256 110.327 9.49344 110.327 11.2473C110.327 11.8096 110.226 12.5991 110.63 12.8594C110.805 12.9719 111.231 12.8766 112.293 11.0677C112.797 10.2097 113.175 9.20133 113.175 9.20133C113.175 9.20133 113.258 9.02167 113.387 8.94467C113.519 8.86522 113.696 8.88967 113.696 8.88967L116.085 8.875C116.085 8.875 116.803 8.78822 116.92 9.11456C117.042 9.45556 116.652 10.2512 115.676 11.5529C114.073 13.6918 113.895 13.4926 115.226 14.7294C116.497 15.9113 116.76 16.4858 116.804 16.5579C117.329 17.433 116.22 17.5027 116.22 17.5027Z" fill="#61606B"/>
<path fill-rule="evenodd" clip-rule="evenodd" d="M60.0024 3.97561C61.467 3.91917 62.9338 3.95847 64.3934 4.09323C65.1015 4.08433 65.8049 4.20842 66.4672 4.45905C67.3809 4.8848 68.1152 5.61912 68.5409 6.53283C68.791 7.19681 68.9139 7.9019 68.9032 8.61131C68.9032 9.70878 69.0209 10.0746 69.0209 13.0024C69.0773 14.467 69.038 15.9338 68.9032 17.3934C68.9121 18.1015 68.7881 18.8049 68.5374 19.4672C68.1117 20.3809 67.3774 21.1152 66.4636 21.5409C65.8014 21.7916 65.0979 21.9157 64.3899 21.9068C63.2924 21.9068 62.9266 22.0244 59.9988 22.0244C58.5352 22.0795 57.0696 22.039 55.6113 21.9032C54.9032 21.9121 54.1998 21.7881 53.5375 21.5374C52.6246 21.1128 51.8904 20.3803 51.4638 19.4683C51.2131 18.8061 51.089 18.1026 51.0979 17.3946C51.0979 16.2971 50.9803 15.9313 50.9803 13.0035C50.9239 11.5388 50.9632 10.072 51.0979 8.61249C51.089 7.90443 51.2131 7.20099 51.4638 6.53871C51.6766 6.08595 51.9655 5.67299 52.3177 5.31774C52.6038 4.89108 53.0388 4.58655 53.5375 4.46376C54.1998 4.21312 54.9032 4.08903 55.6113 4.09794C57.0709 3.96317 58.5377 3.92388 60.0024 3.98031V3.97561ZM60.0024 2.02416C58.4985 1.96921 56.9926 2.0085 55.4937 2.14179C54.5752 2.14073 53.6643 2.30777 52.8059 2.63465C52.0657 2.8761 51.3958 3.29486 50.8544 3.85445C50.2949 4.39577 49.8761 5.0657 49.6346 5.80589C49.2492 6.64685 49.0798 7.5707 49.1418 8.49369C49.0085 9.99265 48.9692 11.4985 49.0242 13.0024C48.969 14.5078 49.0083 16.0152 49.1418 17.5157C49.1398 18.4324 49.3052 19.3416 49.6299 20.1988C49.8714 20.939 50.2902 21.6089 50.8497 22.1503C51.3911 22.7099 52.061 23.1286 52.8012 23.3701C53.6584 23.6948 54.5676 23.8602 55.4843 23.8582C56.9848 23.9917 58.4922 24.031 59.9976 23.9758C61.5031 24.031 63.0105 23.9917 64.511 23.8582C65.4276 23.8602 66.3369 23.6948 67.1941 23.3701C67.9301 23.117 68.5987 22.6994 69.1491 22.1491C69.6994 21.5987 70.117 20.9301 70.3701 20.1941C70.6948 19.3369 70.8602 18.4276 70.8582 17.511C70.8582 16.2912 70.9758 15.9254 70.9758 12.9976C71.031 11.4922 70.9917 9.9848 70.8582 8.48427C70.8602 7.56765 70.6948 6.65837 70.3701 5.80119C70.1286 5.061 69.7099 4.39107 69.1503 3.84974C68.6088 3.29202 67.9393 2.87492 67.2 2.63465C66.3427 2.3082 65.433 2.14117 64.5157 2.14179C63.0152 2.0083 61.5078 1.96901 60.0024 2.02416ZM60.0024 7.39151C59.2622 7.37943 58.5272 7.5163 57.841 7.794C57.1548 8.07169 56.5314 8.48453 56.008 9.00797C55.4845 9.53141 55.0717 10.1548 54.794 10.841C54.5163 11.5272 54.3794 12.2622 54.3915 13.0024C54.3915 14.1121 54.7206 15.1969 55.3371 16.1196C55.9536 17.0423 56.8299 17.7614 57.8552 18.1861C58.8804 18.6108 60.0086 18.7219 61.097 18.5054C62.1854 18.2889 63.1851 17.7545 63.9698 16.9698C64.7545 16.1851 65.2889 15.1854 65.5054 14.097C65.7219 13.0086 65.6108 11.8804 65.1861 10.8552C64.7614 9.82993 64.0423 8.95364 63.1196 8.33711C62.1969 7.72058 61.1121 7.39151 60.0024 7.39151ZM60.0024 16.6618C59.5194 16.6705 59.0396 16.5819 58.5916 16.4011C58.1437 16.2203 57.7368 15.9511 57.3952 15.6095C57.0537 15.2679 56.7844 14.861 56.6036 14.4131C56.4228 13.9651 56.3342 13.4853 56.343 13.0024C56.3342 12.5194 56.4228 12.0396 56.6036 11.5917C56.7844 11.1437 57.0537 10.7368 57.3952 10.3952C57.7368 10.0537 58.1437 9.78443 58.5916 9.60364C59.0396 9.42284 59.5194 9.33418 60.0024 9.34296C60.4853 9.33418 60.9651 9.42284 61.4131 9.60364C61.861 9.78443 62.2679 10.0537 62.6095 10.3952C62.951 10.7368 63.2203 11.1437 63.4011 11.5917C63.5819 12.0396 63.6705 12.5194 63.6617 13.0024C63.6705 13.4853 63.5819 13.9651 63.4011 14.4131C63.2203 14.861 62.951 15.2679 62.6095 15.6095C62.2679 15.9511 61.861 16.2203 61.4131 16.4011C60.9651 16.5819 60.4853 16.6705 60.0024 16.6618ZM65.8579 5.80472C65.5924 5.80472 65.3329 5.88343 65.1122 6.03091C64.8915 6.17838 64.7195 6.38799 64.6179 6.63324C64.5163 6.87848 64.4897 7.14834 64.5415 7.40868C64.5933 7.66903 64.7211 7.90818 64.9088 8.09588C65.0965 8.28358 65.3357 8.4114 65.596 8.46319C65.8564 8.51498 66.1262 8.4884 66.3715 8.38682C66.6167 8.28523 66.8263 8.11321 66.9738 7.8925C67.1213 7.67178 67.2 7.4123 67.2 7.14685C67.1969 6.79184 67.0545 6.45225 66.8035 6.20121C66.5525 5.95018 66.2129 5.80779 65.8579 5.80472Z" fill="#61606B"/>
<path d="M20.1313 2.73521C19.8134 2.74953 19.5216 2.84425 19.2654 2.94889C19.0286 3.04548 18.1783 3.41569 16.8244 4.00395C15.4705 4.59222 13.6765 5.37219 11.7642 6.20534C7.93965 7.87165 3.64183 9.74603 1.43964 10.7061C1.36401 10.7387 1.05688 10.8361 0.71767 11.1045C0.377671 11.3735 0 11.9573 0 12.5958C0 13.1109 0.248207 13.6355 0.547922 13.9358C0.847637 14.2361 1.15139 14.3766 1.40526 14.4811V14.4789C2.2634 14.8331 4.82609 15.8954 5.43624 16.1483C5.65267 16.8202 6.5818 19.6965 6.80283 20.4198H6.80068C6.95691 20.9317 7.10919 21.2653 7.32067 21.5438C7.4264 21.6831 7.55262 21.8093 7.70743 21.9089C7.76683 21.9471 7.83261 21.9768 7.89867 22.0046C7.90788 22.0086 7.91736 22.0097 7.9266 22.0135L7.90082 22.0068C7.91997 22.0148 7.93716 22.0266 7.95668 22.0335C7.98849 22.0449 8.01055 22.0445 8.05338 22.0536C8.2041 22.1016 8.35455 22.1337 8.49386 22.1337C9.09191 22.1337 9.45863 21.7976 9.45863 21.7976L9.48227 21.7798L12.065 19.5161L15.2279 22.5477C15.2857 22.6322 15.7383 23.2667 16.7857 23.2667C17.4108 23.2667 17.9049 22.9462 18.2211 22.61C18.5372 22.2739 18.7342 21.9299 18.8227 21.4637L18.8249 21.4615C18.8955 21.0852 21.9233 5.33503 21.9233 5.33503L21.9169 5.36174C22.0111 4.926 22.0389 4.50461 21.9276 4.07518C21.8163 3.64575 21.5159 3.22668 21.1541 3.00676C20.7923 2.78685 20.4492 2.72088 20.1313 2.73521ZM19.6973 5.23041C19.5776 5.85269 16.8653 19.9684 16.6976 20.8538L12.1295 16.4755L9.04178 19.18L9.89697 15.7165C9.89697 15.7165 15.7965 9.53034 16.1519 9.17021C16.4379 8.88188 16.4978 8.7808 16.4978 8.68052C16.4978 8.54718 16.4316 8.45125 16.2787 8.45125C16.1411 8.45125 15.9544 8.58776 15.8554 8.65158C14.5972 9.46415 9.2383 12.6277 6.60299 14.1806C6.4444 14.1148 4.06336 13.1243 2.78043 12.5936C5.06242 11.5987 8.97413 9.89383 12.6172 8.30657C14.5292 7.47356 16.3227 6.69289 17.6753 6.10518C18.8171 5.60908 19.4127 5.35221 19.6973 5.23041ZM16.6654 21.0163H16.6676C16.6675 21.0166 16.6655 21.0226 16.6654 21.023C16.6668 21.0156 16.6644 21.0221 16.6654 21.0163Z" fill="#61606B"/>
<defs>
<clipPath id="clip0">
<rect width="25" height="25" fill="white" transform="translate(147)"/>
</clipPath>
</defs>
</svg>
