<svg width="25" height="25" viewBox="0 0 25 25" fill="none" xmlns="http://www.w3.org/2000/svg">
<path d="M22.8765 0.835496C22.5152 0.851775 22.1837 0.959407 21.8925 1.07832C21.6234 1.18809 20.6572 1.60877 19.1187 2.27726C17.5801 2.94574 15.5415 3.83207 13.3684 4.77884C9.02233 6.67237 4.13845 8.80235 1.63595 9.89329C1.55001 9.93038 1.201 10.0411 0.815534 10.3461C0.429172 10.6517 0 11.3152 0 12.0407C0 12.6261 0.282053 13.2222 0.622638 13.5635C0.963223 13.9047 1.3084 14.0643 1.59688 14.1832V14.1806C2.57204 14.5831 5.48419 15.7902 6.17755 16.0777C6.42349 16.8411 7.47931 20.1097 7.73048 20.9316H7.72804C7.90558 21.5134 8.07863 21.8925 8.31894 22.2089C8.43909 22.3672 8.58252 22.5106 8.75845 22.6238C8.82595 22.6672 8.90069 22.7009 8.97576 22.7325C8.98622 22.7371 8.997 22.7383 9.0075 22.7427L8.9782 22.7351C8.99997 22.7441 9.0195 22.7575 9.04169 22.7654C9.07783 22.7783 9.10289 22.7779 9.15156 22.7882C9.32284 22.8428 9.49381 22.8792 9.65212 22.8792C10.3317 22.8792 10.7484 22.4973 10.7484 22.4973L10.7753 22.4771L13.7103 19.9047L17.3045 23.3497C17.3701 23.4457 17.8844 24.1667 19.0747 24.1667C19.785 24.1667 20.3465 23.8025 20.7058 23.4205C21.0651 23.0385 21.2889 22.6477 21.3895 22.1179L21.3919 22.1154C21.4721 21.6878 24.9129 3.78984 24.9129 3.78984L24.9055 3.82019C25.0126 3.32503 25.0442 2.84618 24.9177 2.3582C24.7912 1.87021 24.4498 1.39399 24.0387 1.14408C23.6276 0.894178 23.2377 0.819217 22.8765 0.835496ZM22.3832 3.67096C22.2473 4.37809 19.1651 20.4187 18.9746 21.4248L13.7835 16.4495L10.2748 19.5227L11.2466 15.587C11.2466 15.587 17.9506 8.55724 18.3544 8.148C18.6794 7.82035 18.7475 7.7055 18.7475 7.59153C18.7475 7.44001 18.6722 7.331 18.4985 7.331C18.3422 7.331 18.13 7.48613 18.0174 7.55865C16.5877 8.48203 10.4981 12.077 7.5034 13.8417C7.32318 13.7668 4.61745 12.6413 3.15958 12.0382C5.75275 10.9076 10.1979 8.97029 14.3378 7.16659C16.5104 6.21999 18.5485 5.33286 20.0856 4.66501C21.3831 4.10126 22.0599 3.80937 22.3832 3.67096ZM18.938 21.6095H18.9404C18.9404 21.6098 18.9381 21.6167 18.938 21.6171C18.9396 21.6087 18.9368 21.616 18.938 21.6095Z" fill="white"/>
</svg>
